# xmcd
#
# Track frame offsets: 
#        150
#        20216
#        33866
#        55426
#        79466
#        102568
#        126509
#        142160
#        161834
#        176592
#        191151
#        218904
#        243004
#        256184
#        281245
#        302454
#        323367
#
# Disc length: 4499 seconds
#
# Revision: 3
# Processed by: cddbd v1.5.2PL0 Copyright (c) Steve Scherf et al.
# Submitted via: ExactAudioCopy v1.0b3
#
DISCID=00119111
DTITLE=群星 - 试音宝典02号
DYEAR=2009
DGENRE=Acid
TTITLE0=试机二号管弦乐《辉煌》 序曲 
TTITLE1=人约黄错后（人声）
TTITLE2=琴声音乐夜
TTITLE3=教我如何不想他（人声）
TTITLE4=梦花语
TTITLE5=大卫 罗斯 （人声）
TTITLE6=波罗密多（特效人声）
TTITLE7=船歌 （人声）
TTITLE8=《卡门》小提琴协奏曲
TTITLE9=六月茉莉（人声）
TTITLE10=阳春白雪
TTITLE11=我和春天有个约会（人声）
TTITLE12=新疆之春
TTITLE13=弥撒二部曲
TTITLE14=人间烟火（人声）
TTITLE15=茉莉花
TTITLE16=未知
EXTD=
EXTT0=
EXTT1=
EXTT2=
EXTT3=
EXTT4=
EXTT5=
EXTT6=
EXTT7=
EXTT8=
EXTT9=
EXTT10=
EXTT11=
EXTT12=
EXTT13=
EXTT14=
EXTT15=
EXTT16=
PLAYORDER=
